<mxfile host="" modified="2020-06-18T14:54:59.991Z" agent="5.0 (X11; Linux x86_64) AppleWebKit/537.36 (KHTML, like Gecko) code-oss/1.45.1 Chrome/78.0.3904.130 Electron/7.1.14 Safari/537.36" etag="g2bYHXjXGCNVqJB7gSnt" version="13.1.3" pages="3">
    <diagram id="bq3d0rA2AJhD095M2U3_" name="crate">
        <mxGraphModel dx="489" dy="627" grid="1" gridSize="10" guides="1" tooltips="1" connect="1" arrows="1" fold="1" page="1" pageScale="1" pageWidth="850" pageHeight="1100" math="0" shadow="0">
            <root>
                <mxCell id="0"/>
                <mxCell id="1" parent="0"/>
                <mxCell id="w2-8D5NqQDbDJa1svSdK-9" style="edgeStyle=orthogonalEdgeStyle;rounded=0;orthogonalLoop=1;jettySize=auto;html=1;endArrow=blockThin;endFill=1;" parent="1" source="w2-8D5NqQDbDJa1svSdK-1" target="w2-8D5NqQDbDJa1svSdK-3" edge="1">
                    <mxGeometry relative="1" as="geometry"/>
                </mxCell>
                <mxCell id="w2-8D5NqQDbDJa1svSdK-12" style="edgeStyle=orthogonalEdgeStyle;rounded=0;orthogonalLoop=1;jettySize=auto;html=1;endArrow=classic;endFill=1;exitX=0.5;exitY=0;exitDx=0;exitDy=0;" parent="1" source="w2-8D5NqQDbDJa1svSdK-1" target="w2-8D5NqQDbDJa1svSdK-6" edge="1">
                    <mxGeometry relative="1" as="geometry"/>
                </mxCell>
                <mxCell id="w2-8D5NqQDbDJa1svSdK-13" style="edgeStyle=orthogonalEdgeStyle;rounded=0;orthogonalLoop=1;jettySize=auto;html=1;endArrow=classic;endFill=1;exitX=0.5;exitY=0;exitDx=0;exitDy=0;" parent="1" source="w2-8D5NqQDbDJa1svSdK-1" target="w2-8D5NqQDbDJa1svSdK-7" edge="1">
                    <mxGeometry relative="1" as="geometry"/>
                </mxCell>
                <mxCell id="w2-8D5NqQDbDJa1svSdK-18" style="edgeStyle=orthogonalEdgeStyle;rounded=0;orthogonalLoop=1;jettySize=auto;html=1;endArrow=classic;endFill=1;" parent="1" source="w2-8D5NqQDbDJa1svSdK-1" target="w2-8D5NqQDbDJa1svSdK-14" edge="1">
                    <mxGeometry relative="1" as="geometry"/>
                </mxCell>
                <mxCell id="w2-8D5NqQDbDJa1svSdK-1" value="&lt;p style=&quot;margin: 0px ; margin-top: 6px ; text-align: center&quot;&gt;&lt;b&gt;Shell&lt;/b&gt;&lt;br&gt;&lt;/p&gt;&lt;hr&gt;&lt;p style=&quot;margin: 0px ; margin-left: 8px&quot;&gt;+ codes: HashSet&amp;lt;Code&amp;gt;&lt;br&gt;&lt;/p&gt;&lt;p style=&quot;margin: 0px ; margin-left: 8px&quot;&gt;+ stdout: Box&amp;lt;Write&amp;gt;&lt;br&gt;&lt;/p&gt;&lt;p style=&quot;margin: 0px ; margin-left: 8px&quot;&gt;+ stderr: Box&amp;lt;Write&amp;gt;&lt;/p&gt;&lt;p style=&quot;margin: 0px ; margin-left: 8px&quot;&gt;-----------------&lt;/p&gt;&lt;p style=&quot;margin: 0px ; margin-left: 8px&quot;&gt;@ new(): Self&lt;/p&gt;&lt;p style=&quot;margin: 0px ; margin-left: 8px&quot;&gt;@ new_with_streams(stdout: Option&amp;lt;Box&amp;lt;Write&amp;gt;&amp;gt;, stderr: Option&amp;lt;Box&amp;lt;Write&amp;gt;&amp;gt;)&lt;br&gt;&lt;/p&gt;&lt;p style=&quot;margin: 0px ; margin-left: 8px&quot;&gt;@ register(&amp;amp;mut self, name: &amp;amp;str, invokable: Invokable): ShellResult&amp;lt;()&amp;gt;&lt;br&gt;&lt;/p&gt;&lt;p style=&quot;margin: 0px ; margin-left: 8px&quot;&gt;@ unregister(&amp;amp;mut self, name: &amp;amp;str): ShellResult&amp;lt;()&amp;gt;&lt;/p&gt;&lt;p style=&quot;margin: 0px ; margin-left: 8px&quot;&gt;@ run(&amp;amp;mut self, input: &amp;amp;str)&lt;br&gt;&lt;/p&gt;&lt;p style=&quot;margin: 0px ; margin-left: 8px&quot;&gt;@ filter_names(&amp;amp;self, name: &amp;amp;str, startswith: bool, sort_by: Option&amp;lt;FnMut&amp;gt;) -&amp;gt; Vec&amp;lt;&amp;amp;str&amp;gt;&lt;/p&gt;" style="align=left;overflow=fill;html=1;dropTarget=0;fillColor=#0050ef;strokeColor=#001DBC;fontColor=#ffffff;" parent="1" vertex="1">
                    <mxGeometry y="160" width="480" height="200" as="geometry"/>
                </mxCell>
                <mxCell id="w2-8D5NqQDbDJa1svSdK-2" value="" style="shape=component;jettyWidth=8;jettyHeight=4;" parent="w2-8D5NqQDbDJa1svSdK-1" vertex="1">
                    <mxGeometry x="1" width="20" height="20" relative="1" as="geometry">
                        <mxPoint x="-24" y="4" as="offset"/>
                    </mxGeometry>
                </mxCell>
                <mxCell id="w2-8D5NqQDbDJa1svSdK-3" value="crate::io::Stream" style="shape=folder;fontStyle=1;spacingTop=10;tabWidth=40;tabHeight=14;tabPosition=left;html=1;fillColor=#0050ef;strokeColor=#001DBC;fontColor=#ffffff;" parent="1" vertex="1">
                    <mxGeometry x="40" y="40" width="120" height="40" as="geometry"/>
                </mxCell>
                <mxCell id="w2-8D5NqQDbDJa1svSdK-6" value="crate::code::Code" style="shape=folder;fontStyle=1;spacingTop=10;tabWidth=40;tabHeight=14;tabPosition=left;html=1;fillColor=#0050ef;strokeColor=#001DBC;fontColor=#ffffff;" parent="1" vertex="1">
                    <mxGeometry x="200" y="40" width="120" height="40" as="geometry"/>
                </mxCell>
                <mxCell id="w2-8D5NqQDbDJa1svSdK-7" value="crate::code::Invokable" style="shape=folder;fontStyle=1;spacingTop=10;tabWidth=40;tabHeight=14;tabPosition=left;html=1;fillColor=#6a00ff;strokeColor=#3700CC;fontColor=#ffffff;" parent="1" vertex="1">
                    <mxGeometry x="360" y="40" width="160" height="40" as="geometry"/>
                </mxCell>
                <mxCell id="w2-8D5NqQDbDJa1svSdK-20" style="edgeStyle=orthogonalEdgeStyle;rounded=0;orthogonalLoop=1;jettySize=auto;html=1;endArrow=classic;endFill=1;" parent="1" source="w2-8D5NqQDbDJa1svSdK-14" target="w2-8D5NqQDbDJa1svSdK-16" edge="1">
                    <mxGeometry relative="1" as="geometry"/>
                </mxCell>
                <mxCell id="w2-8D5NqQDbDJa1svSdK-14" value="&lt;p style=&quot;margin: 0px ; margin-top: 6px ; text-align: center&quot;&gt;&lt;b&gt;ShellResult&amp;lt;T&amp;gt;&lt;/b&gt;&lt;/p&gt;&lt;hr&gt;&lt;p style=&quot;margin: 0px ; margin-left: 8px&quot; align=&quot;center&quot;&gt;Result&amp;lt;T, ShellError&amp;gt;&lt;br&gt;&lt;/p&gt;" style="align=left;overflow=fill;html=1;dropTarget=0;fillColor=#008a00;strokeColor=#005700;fontColor=#ffffff;" parent="1" vertex="1">
                    <mxGeometry x="560" y="160" width="160" height="50" as="geometry"/>
                </mxCell>
                <mxCell id="w2-8D5NqQDbDJa1svSdK-15" value="" style="shape=component;jettyWidth=8;jettyHeight=4;" parent="w2-8D5NqQDbDJa1svSdK-14" vertex="1">
                    <mxGeometry x="1" width="20" height="20" relative="1" as="geometry">
                        <mxPoint x="-24" y="4" as="offset"/>
                    </mxGeometry>
                </mxCell>
                <mxCell id="w2-8D5NqQDbDJa1svSdK-22" style="edgeStyle=orthogonalEdgeStyle;rounded=0;orthogonalLoop=1;jettySize=auto;html=1;endArrow=classic;endFill=1;" parent="1" source="w2-8D5NqQDbDJa1svSdK-16" target="w2-8D5NqQDbDJa1svSdK-21" edge="1">
                    <mxGeometry relative="1" as="geometry"/>
                </mxCell>
                <mxCell id="w2-8D5NqQDbDJa1svSdK-16" value="&lt;p style=&quot;margin: 0px ; margin-top: 6px ; text-align: center&quot;&gt;&lt;b&gt;ShellError&lt;/b&gt;&lt;/p&gt;&lt;hr&gt;&lt;p style=&quot;margin: 0px ; margin-left: 8px&quot;&gt;+ CodeAlreadyExists(name: &amp;amp;str)&lt;/p&gt;&lt;p style=&quot;margin: 0px ; margin-left: 8px&quot;&gt;+ CodeDoesNotExist(name: &amp;amp;str)&lt;/p&gt;&lt;p style=&quot;margin: 0px ; margin-left: 8px&quot;&gt;+ CodeError(message: &amp;amp;str)&lt;br&gt;&lt;/p&gt;" style="align=left;overflow=fill;html=1;dropTarget=0;fillColor=#a20025;strokeColor=#6F0000;fontColor=#ffffff;" parent="1" vertex="1">
                    <mxGeometry x="800" y="160" width="200" height="80" as="geometry"/>
                </mxCell>
                <mxCell id="w2-8D5NqQDbDJa1svSdK-17" value="" style="shape=component;jettyWidth=8;jettyHeight=4;" parent="w2-8D5NqQDbDJa1svSdK-16" vertex="1">
                    <mxGeometry x="1" width="20" height="20" relative="1" as="geometry">
                        <mxPoint x="-24" y="4" as="offset"/>
                    </mxGeometry>
                </mxCell>
                <mxCell id="w2-8D5NqQDbDJa1svSdK-21" value="crate::code::CodeError" style="shape=folder;fontStyle=1;spacingTop=10;tabWidth=40;tabHeight=14;tabPosition=left;html=1;fillColor=#a20025;strokeColor=#6F0000;fontColor=#ffffff;" parent="1" vertex="1">
                    <mxGeometry x="760" y="50" width="160" height="40" as="geometry"/>
                </mxCell>
            </root>
        </mxGraphModel>
    </diagram>
    <diagram id="BNhJVEN-xQ2Yl0D4aTkF" name="crate::io">
        <mxGraphModel dx="890" dy="592" grid="1" gridSize="10" guides="1" tooltips="1" connect="1" arrows="1" fold="1" page="1" pageScale="1" pageWidth="850" pageHeight="1100" math="0" shadow="0">
            <root>
                <mxCell id="cjNmxnMCaavuKjtYACY7-0"/>
                <mxCell id="cjNmxnMCaavuKjtYACY7-1" parent="cjNmxnMCaavuKjtYACY7-0"/>
                <mxCell id="WAgHyG9vZk37UKSm7rId-0" value="&lt;p style=&quot;margin: 0px ; margin-top: 6px ; text-align: center&quot;&gt;&lt;b&gt;Stream&lt;/b&gt;&lt;/p&gt;&lt;hr&gt;&lt;p style=&quot;margin: 0px ; margin-left: 8px&quot;&gt;+ buffer: Vec&amp;lt;u8&amp;gt;&lt;/p&gt;&lt;p style=&quot;margin: 0px ; margin-left: 8px&quot;&gt;--------------------&lt;/p&gt;&lt;p style=&quot;margin: 0px ; margin-left: 8px&quot;&gt;impl std::io::Read for Stream&lt;/p&gt;&lt;p style=&quot;margin: 0px ; margin-left: 8px&quot;&gt;impl std::io::Write for Stream&lt;br&gt;&lt;/p&gt;" style="align=left;overflow=fill;html=1;dropTarget=0;fillColor=#0050ef;strokeColor=#001DBC;fontColor=#ffffff;" vertex="1" parent="cjNmxnMCaavuKjtYACY7-1">
                    <mxGeometry x="40" y="40" width="180" height="120" as="geometry"/>
                </mxCell>
                <mxCell id="WAgHyG9vZk37UKSm7rId-1" value="" style="shape=component;jettyWidth=8;jettyHeight=4;" vertex="1" parent="WAgHyG9vZk37UKSm7rId-0">
                    <mxGeometry x="1" width="20" height="20" relative="1" as="geometry">
                        <mxPoint x="-24" y="4" as="offset"/>
                    </mxGeometry>
                </mxCell>
            </root>
        </mxGraphModel>
    </diagram>
    <diagram id="VIsX6pew7umVINMZpbyw" name="crate::code">
        <mxGraphModel dx="890" dy="592" grid="1" gridSize="10" guides="1" tooltips="1" connect="1" arrows="1" fold="1" page="1" pageScale="1" pageWidth="850" pageHeight="1100" math="0" shadow="0">
            <root>
                <mxCell id="5cfEYVsOLgAKWUulIk8L-0"/>
                <mxCell id="5cfEYVsOLgAKWUulIk8L-1" parent="5cfEYVsOLgAKWUulIk8L-0"/>
                <mxCell id="S2VDOTqbQcI_QSHAuOs2-0" style="edgeStyle=orthogonalEdgeStyle;rounded=0;orthogonalLoop=1;jettySize=auto;html=1;endArrow=classic;endFill=1;" edge="1" parent="5cfEYVsOLgAKWUulIk8L-1" source="z1OqF3Nba_oBwPJo1qI9-0" target="fWP3elpJMDkex_Z6yw3y-0">
                    <mxGeometry relative="1" as="geometry"/>
                </mxCell>
                <mxCell id="Q7WtTHLOasUDw8fHyEN7-3" style="edgeStyle=orthogonalEdgeStyle;rounded=0;orthogonalLoop=1;jettySize=auto;html=1;endArrow=classic;endFill=1;" edge="1" parent="5cfEYVsOLgAKWUulIk8L-1" source="z1OqF3Nba_oBwPJo1qI9-0" target="23MevSs1jOhv6Mef1K7a-0">
                    <mxGeometry relative="1" as="geometry"/>
                </mxCell>
                <mxCell id="z1OqF3Nba_oBwPJo1qI9-0" value="&lt;p style=&quot;margin: 0px ; margin-top: 6px ; text-align: center&quot;&gt;&lt;b&gt;Code&lt;/b&gt;&lt;/p&gt;&lt;hr&gt;&lt;p style=&quot;margin: 0px ; margin-left: 8px&quot;&gt;+ name: &amp;amp;str&lt;/p&gt;&lt;p style=&quot;margin: 0px ; margin-left: 8px&quot;&gt;+ invokable: Invokable&lt;/p&gt;&lt;p style=&quot;margin: 0px ; margin-left: 8px&quot;&gt;------------&lt;/p&gt;&lt;p style=&quot;margin: 0px ; margin-left: 8px&quot;&gt;@ new(name: &amp;amp;str, invokable: Box&amp;lt;Invokable&amp;gt;) -&amp;gt; CodeResult&amp;lt;Self&amp;gt;&lt;/p&gt;" style="align=left;overflow=fill;html=1;dropTarget=0;fillColor=#0050ef;strokeColor=#001DBC;fontColor=#ffffff;" vertex="1" parent="5cfEYVsOLgAKWUulIk8L-1">
                    <mxGeometry x="40" y="160" width="400" height="120" as="geometry"/>
                </mxCell>
                <mxCell id="z1OqF3Nba_oBwPJo1qI9-1" value="" style="shape=component;jettyWidth=8;jettyHeight=4;" vertex="1" parent="z1OqF3Nba_oBwPJo1qI9-0">
                    <mxGeometry x="1" width="20" height="20" relative="1" as="geometry">
                        <mxPoint x="-24" y="4" as="offset"/>
                    </mxGeometry>
                </mxCell>
                <mxCell id="fWP3elpJMDkex_Z6yw3y-0" value="&lt;p style=&quot;margin: 0px ; margin-top: 6px ; text-align: center&quot;&gt;&lt;b&gt;Invokable&lt;/b&gt;&lt;/p&gt;&lt;hr&gt;&lt;p style=&quot;margin: 0px ; margin-left: 8px&quot;&gt;@ invoke(&amp;amp;self, args: &amp;amp;str&lt;sub&gt;,&lt;/sub&gt; stdout: Box&amp;lt;Write&amp;gt;, stderr: Box&amp;lt;Write&amp;gt;)&lt;br&gt;&lt;/p&gt;" style="align=left;overflow=fill;html=1;dropTarget=0;fillColor=#6a00ff;strokeColor=#3700CC;fontColor=#ffffff;" vertex="1" parent="5cfEYVsOLgAKWUulIk8L-1">
                    <mxGeometry x="40" y="360" width="360" height="80" as="geometry"/>
                </mxCell>
                <mxCell id="fWP3elpJMDkex_Z6yw3y-1" value="" style="shape=component;jettyWidth=8;jettyHeight=4;" vertex="1" parent="fWP3elpJMDkex_Z6yw3y-0">
                    <mxGeometry x="1" width="20" height="20" relative="1" as="geometry">
                        <mxPoint x="-24" y="4" as="offset"/>
                    </mxGeometry>
                </mxCell>
                <mxCell id="Q7WtTHLOasUDw8fHyEN7-2" style="edgeStyle=orthogonalEdgeStyle;rounded=0;orthogonalLoop=1;jettySize=auto;html=1;endArrow=classic;endFill=1;" edge="1" parent="5cfEYVsOLgAKWUulIk8L-1" source="23MevSs1jOhv6Mef1K7a-0" target="Q7WtTHLOasUDw8fHyEN7-0">
                    <mxGeometry relative="1" as="geometry"/>
                </mxCell>
                <mxCell id="23MevSs1jOhv6Mef1K7a-0" value="&lt;p style=&quot;margin: 0px ; margin-top: 6px ; text-align: center&quot;&gt;&lt;b&gt;CodeResult&amp;lt;T&amp;gt;&lt;/b&gt;&lt;/p&gt;&lt;hr&gt;&lt;p style=&quot;margin: 0px ; margin-left: 8px&quot; align=&quot;center&quot;&gt;Result&amp;lt;T, CodeError&amp;gt;&lt;br&gt;&lt;/p&gt;" style="align=left;overflow=fill;html=1;dropTarget=0;fillColor=#008a00;strokeColor=#005700;fontColor=#ffffff;" vertex="1" parent="5cfEYVsOLgAKWUulIk8L-1">
                    <mxGeometry x="40" y="40" width="180" height="50" as="geometry"/>
                </mxCell>
                <mxCell id="23MevSs1jOhv6Mef1K7a-1" value="" style="shape=component;jettyWidth=8;jettyHeight=4;" vertex="1" parent="23MevSs1jOhv6Mef1K7a-0">
                    <mxGeometry x="1" width="20" height="20" relative="1" as="geometry">
                        <mxPoint x="-24" y="4" as="offset"/>
                    </mxGeometry>
                </mxCell>
                <mxCell id="Q7WtTHLOasUDw8fHyEN7-0" value="&lt;p style=&quot;margin: 0px ; margin-top: 6px ; text-align: center&quot;&gt;&lt;b&gt;CodeError&lt;/b&gt;&lt;/p&gt;&lt;hr&gt;&lt;p style=&quot;margin: 0px ; margin-left: 8px&quot;&gt;+ WhitespaceError(name: &amp;amp;str)&lt;br&gt;&lt;/p&gt;" style="align=left;overflow=fill;html=1;dropTarget=0;fillColor=#a20025;strokeColor=#6F0000;fontColor=#ffffff;" vertex="1" parent="5cfEYVsOLgAKWUulIk8L-1">
                    <mxGeometry x="480" y="40" width="180" height="80" as="geometry"/>
                </mxCell>
                <mxCell id="Q7WtTHLOasUDw8fHyEN7-1" value="" style="shape=component;jettyWidth=8;jettyHeight=4;" vertex="1" parent="Q7WtTHLOasUDw8fHyEN7-0">
                    <mxGeometry x="1" width="20" height="20" relative="1" as="geometry">
                        <mxPoint x="-24" y="4" as="offset"/>
                    </mxGeometry>
                </mxCell>
            </root>
        </mxGraphModel>
    </diagram>
</mxfile>